<svg width="129" height="51" viewBox="0 0 129 51" fill="none" xmlns="http://www.w3.org/2000/svg">
<path d="M6.42828 5.27036C6.90599 2.41248 9.38758 0.317703 12.2955 0.317703H42.0723C45.7476 0.317703 48.5433 3.60548 47.9395 7.21749L41.5935 45.182C41.1158 48.0398 38.6342 50.1346 35.7263 50.1346H5.94948C2.27426 50.1346 -0.521488 46.8468 0.0822824 43.2348L6.42828 5.27036Z" fill="#A100F2"/>
<path d="M39.1759 10.6808L33.8656 40.6343H26.5424L28.7265 28.2177H17.3349L15.1508 40.6343H7.82758L13.138 10.6808H20.4611L18.3627 22.4574H29.7543L31.8528 10.6808H39.1759Z" fill="white"/>
<path d="M59.8494 35.0874H69.4423L68.4573 40.6343H51.5412L56.8516 10.6808H64.1748L59.8494 35.0874Z" fill="white"/>
<path d="M99.7441 16.8251L95.5472 40.6343H88.224L88.7808 37.3915C87.8386 38.444 86.6823 39.2974 85.3119 39.9516C83.97 40.5774 82.5282 40.8903 80.9865 40.8903C78.5883 40.8903 76.7039 40.2219 75.3335 38.8849C73.9631 37.5195 73.2779 35.6279 73.2779 33.21C73.2779 32.2997 73.3493 31.4748 73.492 30.7352L75.9759 16.8251H83.2563L80.9865 29.7538C80.9008 30.2089 80.858 30.6498 80.858 31.0765C80.858 32.2712 81.1864 33.1957 81.843 33.85C82.5282 34.4758 83.4704 34.7887 84.6695 34.7887C86.0399 34.7887 87.1962 34.3905 88.1384 33.594C89.1091 32.7691 89.7515 31.6028 90.0655 30.0951L92.4209 16.8251H99.7441Z" fill="white"/>
<path d="M112.756 33.8073L120.978 16.8251H128.815L116.096 40.6343H107.017L102.777 16.8251H110.572L112.756 33.8073Z" fill="white"/>
</svg>
